<mxfile host="app.diagrams.net" modified="2024-05-11T16:17:07.478Z" agent="Mozilla/5.0 (X11; Linux x86_64) AppleWebKit/537.36 (KHTML, like Gecko) Chrome/124.0.0.0 Safari/537.36" etag="_MfqCcD8K21hKkh_a2PH" version="24.4.0" type="device">
  <diagram name="Page-1" id="Si5BDbEPkWmF_99Pl2RE">
    <mxGraphModel dx="794" dy="513" grid="1" gridSize="10" guides="1" tooltips="1" connect="1" arrows="1" fold="1" page="1" pageScale="1" pageWidth="850" pageHeight="1100" math="0" shadow="0">
      <root>
        <mxCell id="0" />
        <mxCell id="1" parent="0" />
        <mxCell id="hDQ86Wh3a_454LK33UL2-3" value="" style="edgeStyle=orthogonalEdgeStyle;rounded=0;orthogonalLoop=1;jettySize=auto;html=1;" edge="1" parent="1" source="hDQ86Wh3a_454LK33UL2-1" target="hDQ86Wh3a_454LK33UL2-2">
          <mxGeometry relative="1" as="geometry" />
        </mxCell>
        <mxCell id="hDQ86Wh3a_454LK33UL2-1" value="Target Movement" style="rounded=0;whiteSpace=wrap;html=1;" vertex="1" parent="1">
          <mxGeometry x="240" y="70" width="220" height="80" as="geometry" />
        </mxCell>
        <mxCell id="hDQ86Wh3a_454LK33UL2-6" value="" style="edgeStyle=orthogonalEdgeStyle;rounded=0;orthogonalLoop=1;jettySize=auto;html=1;" edge="1" parent="1" source="hDQ86Wh3a_454LK33UL2-2" target="hDQ86Wh3a_454LK33UL2-4">
          <mxGeometry relative="1" as="geometry" />
        </mxCell>
        <mxCell id="hDQ86Wh3a_454LK33UL2-2" value="Velocity Profile Generator" style="rounded=0;whiteSpace=wrap;html=1;" vertex="1" parent="1">
          <mxGeometry x="240" y="190" width="220" height="80" as="geometry" />
        </mxCell>
        <mxCell id="hDQ86Wh3a_454LK33UL2-7" value="" style="edgeStyle=orthogonalEdgeStyle;rounded=0;orthogonalLoop=1;jettySize=auto;html=1;" edge="1" parent="1" source="hDQ86Wh3a_454LK33UL2-4" target="hDQ86Wh3a_454LK33UL2-5">
          <mxGeometry relative="1" as="geometry" />
        </mxCell>
        <mxCell id="hDQ86Wh3a_454LK33UL2-4" value="Way Point Division&amp;nbsp;" style="rounded=0;whiteSpace=wrap;html=1;" vertex="1" parent="1">
          <mxGeometry x="240" y="310" width="220" height="80" as="geometry" />
        </mxCell>
        <mxCell id="hDQ86Wh3a_454LK33UL2-5" value="Polynomial Interpolation" style="rounded=0;whiteSpace=wrap;html=1;" vertex="1" parent="1">
          <mxGeometry x="240" y="430" width="220" height="80" as="geometry" />
        </mxCell>
      </root>
    </mxGraphModel>
  </diagram>
</mxfile>
